<svg width="11" height="12" viewBox="0 0 11 12" fill="none" xmlns="http://www.w3.org/2000/svg">
<path fill-rule="evenodd" clip-rule="evenodd" d="M2.30941 2.80437C2.65041 2.46337 3.29782 2.33282 4.21848 2.60361C4.28339 2.6227 4.34901 2.64364 4.41525 2.66643C3.99781 2.96271 3.5888 3.30748 3.20066 3.69562C3.05058 3.8457 2.90722 3.99865 2.77082 4.15375C2.58275 4.36758 2.60364 4.69339 2.81748 4.88146C3.03131 5.06952 3.35712 5.04863 3.54519 4.8348C3.66702 4.69628 3.79531 4.55938 3.92987 4.42482C4.43938 3.91531 4.97885 3.49902 5.50981 3.18281C6.04077 3.49902 6.58024 3.91531 7.08975 4.42482C7.66792 5.003 8.12606 5.61975 8.45414 6.21887C8.46419 6.24112 8.47584 6.2627 8.48902 6.28342C8.67451 6.63133 8.81582 6.97258 8.91097 7.29609C9.18175 8.21676 9.0512 8.86416 8.7102 9.20516C8.3692 9.54616 7.7218 9.67671 6.80113 9.40593C6.73623 9.38684 6.67061 9.36589 6.60436 9.3431C7.02181 9.04682 7.43081 8.70205 7.81895 8.31391C7.96252 8.17034 8.09994 8.02415 8.231 7.87597C8.41966 7.66266 8.39968 7.33679 8.18637 7.14813C7.97306 6.95947 7.64719 6.97945 7.45853 7.19276C7.34145 7.32513 7.21847 7.45599 7.08975 7.58471C6.58024 8.09422 6.04077 8.51052 5.50981 8.82673C4.97885 8.51052 4.43938 8.09422 3.92987 7.58471C2.9944 6.64924 2.37316 5.6128 2.10865 4.71344C1.83786 3.79278 1.96841 3.14537 2.30941 2.80437ZM4.50947 1.61426C4.83724 1.71067 5.17279 1.84329 5.50981 2.00954C5.84683 1.84329 6.18237 1.71067 6.51015 1.61426C7.58355 1.29856 8.70646 1.34223 9.43941 2.07517C9.94099 2.57675 10.1199 3.2698 10.0821 3.98737C10.0485 4.6267 9.84346 5.31865 9.50502 6.00475C9.67128 6.34177 9.80391 6.67732 9.90031 7.00511C10.216 8.07851 10.1723 9.20142 9.43941 9.93437C8.70646 10.6673 7.58355 10.711 6.51015 10.3953C6.18237 10.2989 5.84683 10.1662 5.50981 9.99999C5.17279 10.1662 4.83724 10.2989 4.50947 10.3953C3.43607 10.711 2.31315 10.6673 1.58021 9.93437C1.07898 9.43313 0.899955 8.74069 0.937411 8.02365C0.970831 7.38388 1.17591 6.69139 1.51459 6.00479C1.34834 5.66776 1.21571 5.33221 1.1193 5.00443C0.803597 3.93103 0.847268 2.80811 1.58021 2.07517C2.31315 1.34223 3.43607 1.29856 4.50947 1.61426ZM7.81895 3.69562C7.43081 3.30748 7.02181 2.96271 6.60436 2.66643C6.67061 2.64364 6.73623 2.6227 6.80113 2.60361C7.7218 2.33282 8.3692 2.46337 8.7102 2.80437C8.9454 3.03957 9.07979 3.41105 9.0523 3.93316C9.03676 4.22836 8.96921 4.55826 8.84814 4.91022C8.55186 4.49277 8.20709 4.08376 7.81895 3.69562ZM3.20066 8.31391C3.5888 8.70205 3.99781 9.04682 4.41525 9.3431C4.34901 9.36589 4.28339 9.38684 4.21848 9.40593C3.29782 9.67671 2.65041 9.54616 2.30941 9.20516C2.07438 8.97013 1.94001 8.59899 1.96726 8.07745C1.98269 7.78198 2.05026 7.45171 2.17147 7.09932C2.46775 7.51676 2.81252 7.92577 3.20066 8.31391ZM6.53131 5.99521C6.53131 6.56475 6.0696 7.02646 5.50006 7.02646C4.93052 7.02646 4.46881 6.56475 4.46881 5.99521C4.46881 5.42566 4.93052 4.96396 5.50006 4.96396C6.0696 4.96396 6.53131 5.42566 6.53131 5.99521Z" fill="#FFD700"/>
</svg>
