<svg width="24" height="25" viewBox="0 0 24 25" fill="none" xmlns="http://www.w3.org/2000/svg">
<path d="M12.0003 7.4882C8.96009 7.4882 6.50652 9.94177 6.50652 12.9819C6.50652 16.0221 8.96009 18.4757 12.0003 18.4757C15.0404 18.4757 17.494 16.0221 17.494 12.9819C17.494 9.94177 15.0404 7.4882 12.0003 7.4882ZM12.0003 16.5525C10.0342 16.5525 8.42973 14.948 8.42973 12.9819C8.42973 11.0159 10.0342 9.41141 12.0003 9.41141C13.9663 9.41141 15.5708 11.0159 15.5708 12.9819C15.5708 14.948 13.9663 16.5525 12.0003 16.5525ZM17.719 5.98284C17.0092 5.98284 16.436 6.55606 16.436 7.26588C16.436 7.9757 17.0092 8.54891 17.719 8.54891C18.4288 8.54891 19.0021 7.97838 19.0021 7.26588C19.0023 7.09733 18.9692 6.93039 18.9048 6.77463C18.8404 6.61887 18.7459 6.47735 18.6267 6.35816C18.5076 6.23898 18.366 6.14448 18.2103 6.08008C18.0545 6.01567 17.8876 5.98263 17.719 5.98284ZM22.7092 12.9819C22.7092 11.5034 22.7226 10.0382 22.6396 8.56231C22.5565 6.84802 22.1654 5.32659 20.9119 4.07302C19.6556 2.81677 18.1369 2.42838 16.4226 2.34534C14.944 2.26231 13.4788 2.2757 12.0029 2.2757C10.5244 2.2757 9.0592 2.26231 7.5833 2.34534C5.86902 2.42838 4.34759 2.81945 3.09402 4.07302C1.83777 5.32927 1.44937 6.84802 1.36634 8.56231C1.2833 10.0409 1.2967 11.5061 1.2967 12.9819C1.2967 14.4578 1.2833 15.9257 1.36634 17.4016C1.44937 19.1159 1.84045 20.6373 3.09402 21.8909C4.35027 23.1471 5.86902 23.5355 7.5833 23.6186C9.06187 23.7016 10.5271 23.6882 12.0029 23.6882C13.4815 23.6882 14.9467 23.7016 16.4226 23.6186C18.1369 23.5355 19.6583 23.1444 20.9119 21.8909C22.1681 20.6346 22.5565 19.1159 22.6396 17.4016C22.7253 15.9257 22.7092 14.4605 22.7092 12.9819ZM20.3521 19.298C20.1565 19.7855 19.9208 20.1498 19.5431 20.5248C19.1654 20.9025 18.8038 21.1382 18.3163 21.3337C16.9074 21.8936 13.5619 21.7677 12.0003 21.7677C10.4387 21.7677 7.09045 21.8936 5.68152 21.3364C5.19402 21.1409 4.82973 20.9052 4.45473 20.5275C4.07705 20.1498 3.84134 19.7882 3.6458 19.3007C3.08866 17.8891 3.21455 14.5436 3.21455 12.9819C3.21455 11.4203 3.08866 8.07213 3.6458 6.6632C3.84134 6.1757 4.07705 5.81141 4.45473 5.43641C4.83241 5.06141 5.19402 4.82302 5.68152 4.62749C7.09045 4.07034 10.4387 4.19623 12.0003 4.19623C13.5619 4.19623 16.9101 4.07034 18.319 4.62749C18.8065 4.82302 19.1708 5.05873 19.5458 5.43641C19.9235 5.81409 20.1592 6.1757 20.3547 6.6632C20.9119 8.07213 20.786 11.4203 20.786 12.9819C20.786 14.5436 20.9119 17.8891 20.3521 19.298Z" fill="#EBD5D1" fill-opacity="0.62"/>
</svg>
