<svg width="186" height="32" viewBox="0 0 186 32" fill="none" xmlns="http://www.w3.org/2000/svg">
<path fill-rule="evenodd" clip-rule="evenodd" d="M6.71812 6.71757C7.71011 5.72557 9.59348 5.34578 12.2718 6.13352C12.4606 6.18905 12.6515 6.24999 12.8442 6.31629C11.6298 7.1782 10.44 8.18116 9.31084 9.31029C8.87424 9.74689 8.4572 10.1918 8.06039 10.643C7.51329 11.2651 7.57406 12.2129 8.19613 12.76C8.81819 13.3071 9.766 13.2463 10.3131 12.6243C10.6675 12.2213 11.0407 11.8231 11.4322 11.4316C12.9144 9.94939 14.4837 8.73835 16.0284 7.81847C17.573 8.73835 19.1423 9.94939 20.6245 11.4316C22.3065 13.1136 23.6393 14.9078 24.5937 16.6506C24.6229 16.7154 24.6568 16.7781 24.6951 16.8384C25.2348 17.8505 25.6458 18.8433 25.9226 19.7844C26.7104 22.4627 26.3306 24.346 25.3386 25.338C24.3466 26.33 22.4632 26.7098 19.7849 25.9221C19.5961 25.8666 19.4052 25.8056 19.2125 25.7393C20.4269 24.8774 21.6167 23.8745 22.7459 22.7453C23.1635 22.3277 23.5633 21.9024 23.9445 21.4713C24.4934 20.8508 24.4352 19.9028 23.8147 19.354C23.1942 18.8051 22.2462 18.8632 21.6974 19.4838C21.3568 19.8689 20.999 20.2495 20.6245 20.624C19.1423 22.1062 17.573 23.3173 16.0284 24.2371C14.4837 23.3173 12.9144 22.1062 11.4322 20.624C8.71081 17.9026 6.90357 14.8875 6.13407 12.2712C5.34634 9.59293 5.72612 7.70956 6.71812 6.71757ZM13.1183 3.25542C14.0718 3.53587 15.0479 3.92169 16.0284 4.40533C17.0088 3.92169 17.9849 3.53588 18.9384 3.25542C22.0611 2.33701 25.3277 2.46405 27.4599 4.59625C28.9191 6.05539 29.4396 8.07153 29.3296 10.159C29.2317 12.0189 28.6353 14.0318 27.6508 16.0278C28.1345 17.0082 28.5203 17.9843 28.8007 18.9379C29.7192 22.0605 29.5921 25.3272 27.4599 27.4594C25.3277 29.5916 22.0611 29.7186 18.9384 28.8002C17.9849 28.5197 17.0088 28.1339 16.0284 27.6503C15.0479 28.1339 14.0718 28.5197 13.1183 28.8002C9.99566 29.7186 6.72899 29.5916 4.5968 27.4594C3.13867 26.0012 2.61787 23.9868 2.72684 21.9009C2.82406 20.0398 3.42065 18.0253 4.40591 16.0279C3.92226 15.0474 3.53643 14.0713 3.25597 13.1177C2.33756 9.99511 2.4646 6.72844 4.5968 4.59624C6.72899 2.46405 9.99566 2.33701 13.1183 3.25542ZM22.7459 9.31029C21.6167 8.18116 20.4269 7.1782 19.2125 6.31629C19.4052 6.24999 19.5961 6.18905 19.7849 6.13352C22.4632 5.34579 24.3466 5.72557 25.3386 6.71757C26.0228 7.40176 26.4138 8.48246 26.3338 10.0013C26.2886 10.8601 26.0921 11.8198 25.7399 12.8437C24.878 11.6293 23.875 10.4394 22.7459 9.31029ZM9.31084 22.7453C10.44 23.8745 11.6298 24.8774 12.8442 25.7393C12.6515 25.8056 12.4606 25.8666 12.2718 25.9221C9.59348 26.7098 7.71011 26.33 6.71812 25.338C6.03437 24.6543 5.6435 23.5746 5.72275 22.0574C5.76765 21.1979 5.9642 20.2371 6.31683 19.2119C7.17874 20.4263 8.1817 21.6162 9.31084 22.7453ZM19 16C19 17.6569 17.6569 19 16 19C14.3431 19 13 17.6569 13 16C13 14.3431 14.3431 13 16 13C17.6569 13 19 14.3431 19 16Z" fill="#FFD700"/>
<path d="M36.3047 24L43.5234 8.17969H45.1641L52.3828 24H48.5625L44.3672 13.5L40.125 24H36.3047ZM39.9141 20.9531V18.3047H48.7266V20.9531H39.9141ZM58.665 24.2812C57.6337 24.2812 56.7119 24.0781 55.8994 23.6719C55.1025 23.2656 54.4697 22.6875 54.0009 21.9375C53.5478 21.1719 53.3212 20.2656 53.3212 19.2188V12.1641H56.3447V18.6797C56.3447 19.5859 56.5556 20.2734 56.9775 20.7422C57.415 21.1953 57.9775 21.4219 58.665 21.4219C59.3525 21.4219 59.9072 21.1953 60.3291 20.7422C60.7666 20.2734 60.9853 19.5859 60.9853 18.6797V12.1641H64.0087V19.2188C64.0087 20.2656 63.7744 21.1719 63.3056 21.9375C62.8369 22.6875 62.1962 23.2656 61.3837 23.6719C60.5869 24.0781 59.6806 24.2812 58.665 24.2812ZM71.8378 24.3516C70.9472 24.3516 70.1191 24.1875 69.3534 23.8594C68.6034 23.5312 67.9472 23.0781 67.3847 22.5C66.8222 21.9219 66.3847 21.2578 66.0722 20.5078C65.7753 19.7578 65.6269 18.9688 65.6269 18.1406C65.6269 17.3125 65.7753 16.5234 66.0722 15.7734C66.3847 15.0234 66.8222 14.3594 67.3847 13.7812C67.9472 13.1875 68.6034 12.7188 69.3534 12.375C70.1191 12.0312 70.9472 11.8594 71.8378 11.8594C72.7284 11.8594 73.4472 12 73.9941 12.2812C74.5566 12.5625 75.0019 12.8359 75.33 13.1016V15.8438C74.9237 15.5469 74.4628 15.2969 73.9472 15.0938C73.4472 14.8906 72.83 14.7891 72.0956 14.7891C71.5019 14.7891 70.9472 14.9375 70.4316 15.2344C69.9316 15.5312 69.5331 15.9297 69.2362 16.4297C68.9394 16.9297 68.7909 17.5 68.7909 18.1406C68.7909 18.7812 68.9316 19.3516 69.2128 19.8516C69.4941 20.3516 69.8847 20.75 70.3847 21.0469C70.9003 21.3281 71.4706 21.4688 72.0956 21.4688C72.83 21.4688 73.4472 21.3672 73.9472 21.1641C74.4628 20.9609 74.9237 20.7188 75.33 20.4375V23.1562C75.0019 23.4375 74.5566 23.7109 73.9941 23.9766C73.4472 24.2266 72.7284 24.3516 71.8378 24.3516ZM81.9169 24.3516C81.2137 24.3516 80.5731 24.1953 79.995 23.8828C79.4325 23.5703 78.9872 23.1328 78.6591 22.5703C78.3309 21.9922 78.1669 21.3125 78.1669 20.5312V14.6484H76.1981V13.125C76.9637 12.8594 77.5887 12.3672 78.0731 11.6484C78.5731 10.9297 79.0106 10.0312 79.3856 8.95312H81.1434V12.1641H84.7059V14.6484H81.1434V19.7578C81.1434 20.2891 81.2762 20.7109 81.5419 21.0234C81.8231 21.3203 82.2294 21.4688 82.7606 21.4688C83.2294 21.4688 83.6356 21.3984 83.9794 21.2578C84.3231 21.1172 84.6278 20.9688 84.8934 20.8125V23.3438C84.6122 23.6406 84.2137 23.8828 83.6981 24.0703C83.1981 24.2578 82.6044 24.3516 81.9169 24.3516ZM89.4178 10.0312C88.8553 10.0312 88.3709 9.82812 87.9647 9.42188C87.5584 9.01562 87.3553 8.54688 87.3553 8.01562C87.3553 7.45312 87.5584 6.97656 87.9647 6.58594C88.3709 6.19531 88.8553 6 89.4178 6C89.7928 6 90.1366 6.09375 90.4491 6.28125C90.7616 6.45313 91.0116 6.69531 91.1991 7.00781C91.3866 7.30469 91.4803 7.64062 91.4803 8.01562C91.4803 8.35938 91.3866 8.6875 91.1991 9C91.0116 9.3125 90.7616 9.5625 90.4491 9.75C90.1366 9.9375 89.7928 10.0312 89.4178 10.0312ZM88.2225 24V12.1641H91.1991V24H88.2225ZM86.3241 14.6953V12.1641H91.1991V14.6953H86.3241ZM99.4266 24.3516C98.5672 24.3516 97.7547 24.1953 96.9891 23.8828C96.2391 23.5547 95.5672 23.1094 94.9734 22.5469C94.3797 21.9844 93.9188 21.3281 93.5906 20.5781C93.2625 19.8125 93.0984 18.9922 93.0984 18.1172C93.0984 17.2422 93.2625 16.4297 93.5906 15.6797C93.9188 14.9141 94.3797 14.25 94.9734 13.6875C95.5672 13.1094 96.2391 12.6641 96.9891 12.3516C97.7547 12.0234 98.5672 11.8594 99.4266 11.8594C100.286 11.8594 101.098 12.0234 101.864 12.3516C102.63 12.6641 103.302 13.1094 103.88 13.6875C104.473 14.25 104.934 14.9141 105.263 15.6797C105.606 16.4297 105.778 17.2422 105.778 18.1172C105.778 18.9922 105.606 19.8125 105.263 20.5781C104.934 21.3281 104.473 21.9844 103.88 22.5469C103.302 23.1094 102.63 23.5547 101.864 23.8828C101.098 24.1953 100.286 24.3516 99.4266 24.3516ZM99.4266 21.4688C100.005 21.4688 100.528 21.3438 100.997 21.0938C101.481 20.8281 101.872 20.4453 102.169 19.9453C102.466 19.4297 102.614 18.8203 102.614 18.1172C102.614 17.3828 102.466 16.7656 102.169 16.2656C101.872 15.7656 101.481 15.3906 100.997 15.1406C100.528 14.875 100.005 14.7422 99.4266 14.7422C98.8797 14.7422 98.3563 14.875 97.8563 15.1406C97.3719 15.3906 96.9813 15.7656 96.6844 16.2656C96.4031 16.7656 96.2625 17.3828 96.2625 18.1172C96.2625 18.8203 96.4031 19.4297 96.6844 19.9453C96.9813 20.4453 97.3719 20.8281 97.8563 21.0938C98.3563 21.3438 98.8797 21.4688 99.4266 21.4688ZM115.459 24L115.435 17.1328C115.435 16.3359 115.24 15.7422 114.849 15.3516C114.474 14.9609 113.951 14.7656 113.279 14.7656C112.748 14.7656 112.256 14.9375 111.802 15.2812C111.349 15.625 110.951 16.0312 110.607 16.5V13.8516C110.857 13.5234 111.154 13.2109 111.498 12.9141C111.857 12.6016 112.263 12.3516 112.717 12.1641C113.17 11.9609 113.662 11.8594 114.193 11.8594C115.006 11.8594 115.732 12.0391 116.373 12.3984C117.013 12.7578 117.513 13.3047 117.873 14.0391C118.248 14.7578 118.435 15.6562 118.435 16.7344V24H115.459ZM107.631 24V12.1641H110.607V24H107.631ZM131.842 24V8.29688H135.077V24H131.842ZM121.296 24V8.29688H124.553V24H121.296ZM124.155 17.625V14.6953H132.499V17.625H124.155ZM143.679 24.3516C142.82 24.3516 142.007 24.1953 141.242 23.8828C140.492 23.5547 139.82 23.1094 139.226 22.5469C138.632 21.9844 138.172 21.3281 137.843 20.5781C137.515 19.8125 137.351 18.9922 137.351 18.1172C137.351 17.2422 137.515 16.4297 137.843 15.6797C138.172 14.9141 138.632 14.25 139.226 13.6875C139.82 13.1094 140.492 12.6641 141.242 12.3516C142.007 12.0234 142.82 11.8594 143.679 11.8594C144.539 11.8594 145.351 12.0234 146.117 12.3516C146.882 12.6641 147.554 13.1094 148.132 13.6875C148.726 14.25 149.187 14.9141 149.515 15.6797C149.859 16.4297 150.031 17.2422 150.031 18.1172C150.031 18.9922 149.859 19.8125 149.515 20.5781C149.187 21.3281 148.726 21.9844 148.132 22.5469C147.554 23.1094 146.882 23.5547 146.117 23.8828C145.351 24.1953 144.539 24.3516 143.679 24.3516ZM143.679 21.4688C144.257 21.4688 144.781 21.3438 145.25 21.0938C145.734 20.8281 146.125 20.4453 146.422 19.9453C146.718 19.4297 146.867 18.8203 146.867 18.1172C146.867 17.3828 146.718 16.7656 146.422 16.2656C146.125 15.7656 145.734 15.3906 145.25 15.1406C144.781 14.875 144.257 14.7422 143.679 14.7422C143.132 14.7422 142.609 14.875 142.109 15.1406C141.625 15.3906 141.234 15.7656 140.937 16.2656C140.656 16.7656 140.515 17.3828 140.515 18.1172C140.515 18.8203 140.656 19.4297 140.937 19.9453C141.234 20.4453 141.625 20.8281 142.109 21.0938C142.609 21.3438 143.132 21.4688 143.679 21.4688ZM156.993 24.2812C155.962 24.2812 155.04 24.0781 154.227 23.6719C153.43 23.2656 152.798 22.6875 152.329 21.9375C151.876 21.1719 151.649 20.2656 151.649 19.2188V12.1641H154.673V18.6797C154.673 19.5859 154.883 20.2734 155.305 20.7422C155.743 21.1953 156.305 21.4219 156.993 21.4219C157.68 21.4219 158.235 21.1953 158.657 20.7422C159.094 20.2734 159.313 19.5859 159.313 18.6797V12.1641H162.337V19.2188C162.337 20.2656 162.102 21.1719 161.633 21.9375C161.165 22.6875 160.524 23.2656 159.712 23.6719C158.915 24.0781 158.008 24.2812 156.993 24.2812ZM168.009 24.3516C167.478 24.3516 166.955 24.2891 166.439 24.1641C165.923 24.0547 165.447 23.9062 165.009 23.7188C164.588 23.5312 164.244 23.3438 163.978 23.1562V20.5547C164.275 20.7578 164.634 20.9531 165.056 21.1406C165.478 21.3281 165.916 21.4844 166.369 21.6094C166.822 21.7188 167.236 21.7734 167.611 21.7734C168.205 21.7734 168.658 21.6641 168.97 21.4453C169.298 21.2266 169.463 20.9297 169.463 20.5547C169.463 20.2578 169.33 20.0234 169.064 19.8516C168.798 19.6797 168.408 19.5078 167.892 19.3359L166.439 18.8203C165.548 18.5234 164.923 18.1016 164.564 17.5547C164.22 17.0078 164.048 16.3594 164.048 15.6094C164.048 14.8594 164.236 14.2109 164.611 13.6641C165.002 13.1016 165.541 12.6641 166.228 12.3516C166.931 12.0234 167.72 11.8594 168.595 11.8594C169.33 11.8594 170.009 11.9688 170.634 12.1875C171.275 12.3906 171.759 12.6406 172.088 12.9375V15.5625C171.728 15.3125 171.275 15.0703 170.728 14.8359C170.197 14.6016 169.634 14.4844 169.041 14.4844C168.478 14.4844 168.033 14.6094 167.705 14.8594C167.377 15.1094 167.213 15.4062 167.213 15.75C167.213 16 167.306 16.2344 167.494 16.4531C167.697 16.6562 168.056 16.8359 168.572 16.9922L169.908 17.4375C170.83 17.7031 171.509 18.1016 171.947 18.6328C172.384 19.1484 172.603 19.7891 172.603 20.5547C172.603 21.2734 172.392 21.9219 171.97 22.5C171.564 23.0781 171.009 23.5312 170.306 23.8594C169.619 24.1875 168.853 24.3516 168.009 24.3516ZM179.706 24.3516C178.831 24.3516 178.01 24.2031 177.245 23.9062C176.479 23.5938 175.799 23.1641 175.206 22.6172C174.628 22.0703 174.174 21.4219 173.846 20.6719C173.518 19.9219 173.354 19.1016 173.354 18.2109C173.354 17.0547 173.612 16 174.128 15.0469C174.643 14.0781 175.354 13.3047 176.26 12.7266C177.167 12.1484 178.198 11.8594 179.354 11.8594C180.51 11.8594 181.503 12.1094 182.331 12.6094C183.174 13.1094 183.815 13.8047 184.253 14.6953C184.706 15.5703 184.932 16.5859 184.932 17.7422V19.0078H176.096V16.9688H182.073C182.042 16.3906 181.885 15.9219 181.604 15.5625C181.323 15.1875 180.979 14.9141 180.573 14.7422C180.167 14.5547 179.737 14.4609 179.284 14.4609C178.674 14.4609 178.143 14.6172 177.69 14.9297C177.253 15.2422 176.909 15.6797 176.659 16.2422C176.409 16.8047 176.284 17.4609 176.284 18.2109C176.284 18.8828 176.432 19.4766 176.729 19.9922C177.026 20.5078 177.44 20.9141 177.971 21.2109C178.518 21.5078 179.135 21.6562 179.823 21.6562C180.698 21.6562 181.479 21.4844 182.167 21.1406C182.87 20.7969 183.424 20.4453 183.831 20.0859V22.8516C183.596 23.0703 183.268 23.2969 182.846 23.5312C182.424 23.7656 181.94 23.9609 181.393 24.1172C180.862 24.2734 180.299 24.3516 179.706 24.3516Z" fill="#FFD700"/>
</svg>
