<svg width="24" height="25" viewBox="0 0 24 25" fill="none" xmlns="http://www.w3.org/2000/svg">
<path d="M20.626 3.6106H3.37598C2.96113 3.6106 2.62598 3.94575 2.62598 4.3606V21.6106C2.62598 22.0254 2.96113 22.3606 3.37598 22.3606H20.626C21.0408 22.3606 21.376 22.0254 21.376 21.6106V4.3606C21.376 3.94575 21.0408 3.6106 20.626 3.6106ZM18.4604 9.08325H16.9627C15.7885 9.08325 15.5611 9.64106 15.5611 10.4614V12.2684H18.3643L17.9986 15.0973H15.5611V22.3606H12.6385V15.0997H10.1939V12.2684H12.6385V10.1825C12.6385 7.76138 14.1174 6.44185 16.2783 6.44185C17.3143 6.44185 18.2025 6.51919 18.4627 6.55435V9.08325H18.4604Z" fill="#EBD5D1" fill-opacity="0.62"/>
</svg>
